<?xml version="1.0" encoding="utf-8"?>
<!-- Generator: Adobe Illustrator 28.2.0, SVG Export Plug-In . SVG Version: 6.00 Build 0)  -->
<svg version="1.1" id="Layer_1" xmlns="http://www.w3.org/2000/svg" xmlns:xlink="http://www.w3.org/1999/xlink" x="0px" y="0px"
	 viewBox="0 0 300 300" style="enable-background:new 0 0 300 300;" xml:space="preserve">
<style type="text/css">
	.st0{fill:#FFFFFF;}
	.st1{fill:#0C5756;}
</style>
<rect y="0" class="st0" width="300" height="300"/>
<g>
	<g>
		<path class="st1" d="M-0.5-1v302h301V-1H-0.5z M142.2,13.7c2.8-5,10.1-4.9,12.6,0.1L226,155.6c-0.2,0.1-0.3,0.1-0.4,0.2
			c-19.9,11.6-46.7,18.8-75.6,20.2c-36.3,1.9-69.3-6.1-88.6-19.3L142.2,13.7z M264.2,256.2l-110.1-41.8c-6.5-2.4-13.7-2.5-20.3-0.1
			L21.2,254.7c-6.3,2.2-11.8-4.3-8.6-10l41.6-73.5c22.5,14.9,57.8,23.3,97.8,21.3c29-1.5,56.4-8.3,77.9-19.4
			c1.8-0.9,3.6-1.9,5.3-2.9l38.2,76.1C276.3,252.1,270.3,258.5,264.2,256.2z"/>
	</g>
</g>
</svg>
